<svg width="217" height="99" fill="none" xmlns="http://www.w3.org/2000/svg"><path d="M32.79 66.78l9.73 20.68L30.7 98.65l-19.4-7.43-9.8-18.34 9.59-13.16 21.7 7.06zm15.57-16.12L34.64 66.02l9.68 20.7 23.08 8.21 16.55-12.86-9.2-23.72-26.39-7.69zM10.83 17.47L0 35.7l11.05 22.04 21.89 7.03 13.69-15.7-10.94-25.43-24.86-6.17zM54.4.5L38.03 22.76l10.88 25.56 26.74 7.66L95.8 37.05 85.68 6.84 54.4.5z" fill="url(#paint0_linear)"/><path d="M117.25 47.95h-7.87V37.93h7.87v-2.85c0-4.66 1.57-8.31 4.72-10.93 3.14-2.62 7.52-3.93 13.14-3.93h6.59v10.02h-6.41c-1.95 0-3.37.4-4.26 1.21-.88.81-1.33 2.07-1.33 3.8v2.68h10.99v10.02H129.7v33.08h-12.45V47.95zm44.58-10.02h-12.45v43.1h12.45v-43.1zm15.12 39.64c-3.36-2.76-5.04-6.39-5.04-10.88h12.27c0 1.55.56 2.81 1.7 3.76 1.13.95 2.61 1.42 4.44 1.42h8.24c3.66 0 5.49-.95 5.49-2.85v-1.47c0-.58-.31-1.11-.92-1.6-.61-.49-1.43-.82-2.47-.99l-15.84-2.59c-3.72-.57-6.67-1.83-8.83-3.76-2.17-1.93-3.25-4.19-3.25-6.78v-2.85c0-3.68 1.6-6.56 4.81-8.64 3.2-2.07 7.67-3.11 13.41-3.11h7.14c5.13 0 9.26 1.28 12.4 3.84 3.14 2.56 4.72 5.95 4.72 10.15h-12.27c0-1.27-.45-2.27-1.33-3.02-.88-.75-2.06-1.12-3.52-1.12h-6.96c-3.97 0-5.95.86-5.95 2.59v1.38c0 .63.26 1.17.78 1.6.52.43 1.27.73 2.25.91l16.66 2.85c3.48.58 6.29 1.8 8.42 3.67 2.13 1.87 3.2 3.99 3.2 6.35v3.11c0 3.74-1.63 6.71-4.9 8.9-3.27 2.19-7.61 3.28-13.05 3.28h-8.24c-5.55 0-10.01-1.38-13.36-4.15zM161.82 20.2h-12.45v10.07h12.45V20.2z" fill="#000"/><path d="M117.25 47.95h-7.87V37.93h7.87v-2.85c0-4.66 1.57-8.31 4.72-10.93 3.14-2.62 7.52-3.93 13.14-3.93h6.59v10.02h-6.41c-1.95 0-3.37.4-4.26 1.21-.88.81-1.33 2.07-1.33 3.8v2.68h10.99v10.02H129.7v33.08h-12.45V47.95zm44.58-10.02h-12.45v43.1h12.45v-43.1zm15.12 39.64c-3.36-2.76-5.04-6.39-5.04-10.88h12.27c0 1.55.56 2.81 1.7 3.76 1.13.95 2.61 1.42 4.44 1.42h8.24c3.66 0 5.49-.95 5.49-2.85v-1.47c0-.58-.31-1.11-.92-1.6-.61-.49-1.43-.82-2.47-.99l-15.84-2.59c-3.72-.57-6.67-1.83-8.83-3.76-2.17-1.93-3.25-4.19-3.25-6.78v-2.85c0-3.68 1.6-6.56 4.81-8.64 3.2-2.07 7.67-3.11 13.41-3.11h7.14c5.13 0 9.26 1.28 12.4 3.84 3.14 2.56 4.72 5.95 4.72 10.15h-12.27c0-1.27-.45-2.27-1.33-3.02-.88-.75-2.06-1.12-3.52-1.12h-6.96c-3.97 0-5.95.86-5.95 2.59v1.38c0 .63.26 1.17.78 1.6.52.43 1.27.73 2.25.91l16.66 2.85c3.48.58 6.29 1.8 8.42 3.67 2.13 1.87 3.2 3.99 3.2 6.35v3.11c0 3.74-1.63 6.71-4.9 8.9-3.27 2.19-7.61 3.28-13.05 3.28h-8.24c-5.55 0-10.01-1.38-13.36-4.15zM161.82 20.2h-12.45v10.07h12.45V20.2z" fill="#000"/><defs><linearGradient id="paint0_linear" x1="0" y1="49.575" x2="95.805" y2="49.575" gradientUnits="userSpaceOnUse"><stop stop-color="#00B1E8"/><stop offset="1" stop-color="#4559A7"/></linearGradient></defs></svg>